<svg width="21" height="19" viewBox="0 0 21 19" fill="none" xmlns="http://www.w3.org/2000/svg">
<path d="M10.8203 6.9C9.67241 6.9 8.7418 7.83057 8.7418 8.97853C8.7418 10.1264 9.67237 11.0571 10.8203 11.0571C11.9682 11.0571 12.8989 10.1265 12.8989 8.97853C12.8989 7.83057 11.9683 6.9 10.8203 6.9ZM10.8203 9.91486C10.3032 9.91486 9.88395 9.49564 9.88395 8.97848C9.88395 8.46133 10.3032 8.04211 10.8203 8.04211C11.3375 8.04211 11.7567 8.46133 11.7567 8.97848C11.7567 9.49564 11.3375 9.91486 10.8203 9.91486Z" fill="#1168AC" stroke="#1168AC" stroke-width="0.2"/>
<path d="M18.7249 2.37859L18.7244 2.37853L5.8654 0.91839C5.33919 0.843987 4.80617 0.997465 4.40012 1.34031C3.995 1.65517 3.73527 2.12126 3.68067 2.63146L3.45597 4.47422H2.8143C1.7132 4.47422 0.900637 5.44756 0.900637 6.52918V16.1613C0.873814 17.2042 1.69712 18.0718 2.7402 18.0993C2.76514 18.1 2.79007 18.1002 2.81489 18.0998H15.7453C16.8271 18.0998 17.8238 17.2636 17.8238 16.1626V15.8669C18.129 15.7972 18.4182 15.6697 18.6758 15.4911L18.6761 15.4915L18.6833 15.4854C19.0844 15.1477 19.3413 14.6694 19.4013 14.1485L19.4013 14.1483L20.4848 4.58548L20.4849 4.5848C20.6011 3.49159 19.8166 2.50816 18.7249 2.37859ZM16.6817 16.0626H16.6817V16.1626C16.6817 16.3861 16.5703 16.5832 16.3945 16.7271C16.218 16.8715 15.9812 16.9577 15.7453 16.9577H2.8143V16.9576L2.81136 16.9577C2.39847 16.9699 2.05393 16.645 2.0418 16.2321L2.0418 16.232C2.04116 16.2108 2.04144 16.1895 2.04263 16.1682L2.04279 16.1682V16.1626V14.4703L5.65289 11.8151L5.6529 11.8151L5.65454 11.8139C6.05432 11.5069 6.61741 11.5342 6.98572 11.8783L6.98569 11.8783L6.98789 11.8802L9.55526 14.1414L9.55524 14.1414L9.55705 14.1429C9.96454 14.4851 10.4775 14.6763 11.0095 14.6845L11.0098 14.6845C11.4261 14.6896 11.8355 14.5788 12.1924 14.3645C12.1927 14.3643 12.1929 14.3642 12.1932 14.364L16.6817 11.7666V16.0626ZM16.6817 6.53247V10.4287L11.5966 13.3911L11.596 13.3915C11.192 13.6308 10.6808 13.5877 10.3227 13.2841L7.73249 11L7.7325 11L7.73153 10.9992C6.95365 10.3308 5.81676 10.2897 4.9927 10.9002C4.99258 10.9003 4.99245 10.9004 4.99233 10.9005L2.04279 13.0456V6.52918C2.04279 6.04582 2.36973 5.61638 2.8143 5.61638H15.7432C16.2437 5.63814 16.6479 6.03276 16.6817 6.53247ZM17.9593 14.5845C17.9312 14.6126 17.8826 14.6379 17.8238 14.6652V6.52918H17.8238L17.8237 6.52571C17.7847 5.39971 16.8739 4.49975 15.7475 4.47425L15.7475 4.47422H15.7453H4.59882L4.7975 2.75236C4.83944 2.53967 4.95047 2.34683 5.11334 2.20374C5.29953 2.07655 5.52381 2.01721 5.74868 2.03569L18.5839 3.51938L18.5839 3.5194L18.5859 3.5196C19.0489 3.56356 19.3886 3.97456 19.3446 4.43759L19.3439 4.44491L19.4432 4.45642L19.3439 4.44492L18.2369 14.0077L18.2361 14.0077L18.2362 14.02C18.2379 14.237 18.1389 14.4425 17.9682 14.5765L17.9678 14.576L17.9593 14.5845Z" fill="#1168AC" stroke="#1168AC" stroke-width="0.2"/>
</svg>
