<svg width="50" height="24" viewBox="0 0 50 24" fill="none" xmlns="http://www.w3.org/2000/svg">
<path d="M49.7104 11.2499L38.5995 1.12247C38.2908 0.871742 37.9533 0.823501 37.5868 0.977852C37.2206 1.13241 37.0367 1.41192 37.0367 1.8172V8.29873H0.925903C0.655713 8.29873 0.433764 8.38538 0.26036 8.55899C0.0870568 8.73249 0 8.95444 0 9.22443V14.7798C0 15.0497 0.0866514 15.2717 0.260258 15.445C0.434068 15.6185 0.656017 15.7051 0.925802 15.7051H37.0369V22.1866C37.0369 22.5729 37.2211 22.8524 37.5871 23.0255C37.9539 23.1805 38.2914 23.1219 38.6001 22.8524L49.711 12.6086C49.9038 12.4158 50 12.1848 50 11.9145C50 11.6644 49.9032 11.4428 49.7104 11.2499Z" fill="#FCCA3A"/>
</svg>
