<svg width="17" height="11" viewBox="0 0 17 11" fill="none" xmlns="http://www.w3.org/2000/svg">
<path d="M8.69687 9.75449L15.7771 2.77377C15.941 2.58928 16.0312 2.34301 16.0312 2.08041C16.0312 1.81782 15.941 1.57154 15.7771 1.38706L15.2558 0.79964C14.9161 0.417405 14.364 0.417405 14.0249 0.79964L8.07935 6.50193L2.12722 0.792207C1.96334 0.60772 1.74486 0.505859 1.5119 0.505859C1.27868 0.505859 1.0602 0.60772 0.896184 0.792207L0.375025 1.37962C0.211136 1.56426 0.12085 1.81038 0.12085 2.07298C0.12085 2.33557 0.211136 2.58185 0.375025 2.76634L7.46169 9.75449C7.6261 9.93942 7.84561 10.041 8.07896 10.0404C8.31322 10.041 8.5326 9.93942 8.69687 9.75449Z" fill="#1168AC"/>
</svg>
