<svg width="18" height="12" viewBox="0 0 18 12" fill="none" xmlns="http://www.w3.org/2000/svg">
<path d="M7.06589 10.2501L3.66498 7.00765L16.256 7.00764C16.6922 7.00764 17.05 6.66989 17.05 6.24835C17.05 5.82688 16.6922 5.48906 16.256 5.48906L3.66498 5.48907L7.06577 2.24665C7.37699 1.94993 7.37699 1.46789 7.06577 1.17117L7.06576 1.17116C6.91064 1.02333 6.70758 0.949622 6.5052 0.949623C6.3028 0.949623 6.09981 1.02334 5.94464 1.17116L5.94463 1.17117L1.18342 5.71062C0.872194 6.00734 0.872194 6.48938 1.18342 6.7861L5.94475 11.3255C6.25456 11.6209 6.75607 11.6209 7.06589 11.3255C7.37711 11.0288 7.37711 10.5468 7.06589 10.2501Z" fill="#808080" stroke="#808080" stroke-width="0.1"/>
</svg>
