<svg width="17" height="17" viewBox="0 0 17 17" fill="none" xmlns="http://www.w3.org/2000/svg">
<g clip-path="url(#clip0_433_370)">
<path d="M9.64067 11.932L5.06741 7.35879L5.48483 6.10653C5.72439 5.38786 5.53735 4.59552 5.00167 4.05985L4.37457 3.43275C3.59352 2.65171 2.32719 2.65171 1.54615 3.43276L0.176737 4.80217C0.0655226 4.91339 0.0133802 5.0706 0.036091 5.22623C0.0557799 5.3611 0.563311 8.57426 4.49427 12.5052C8.42523 16.4362 11.6384 16.9437 11.7732 16.9633C11.9289 16.986 12.0861 16.9339 12.1973 16.8227L13.5667 15.4533C14.3477 14.6722 14.3477 13.4059 13.5667 12.6249L12.9396 11.9978C12.4039 11.4621 11.6116 11.275 10.8929 11.5146L9.64067 11.932ZM5.19856 11.8009C3.27681 9.87914 2.24325 8.15348 1.71464 7.04423C1.49056 6.57403 1.33582 6.17193 1.23044 5.85643C1.11955 5.52443 1.22314 5.16442 1.47064 4.91692L1.86291 4.52465C2.46901 3.91856 3.45169 3.91857 4.05779 4.52466C4.47347 4.94035 4.61862 5.55521 4.43272 6.11291L3.92774 7.62783L9.37159 13.0717L10.8865 12.5667C11.4442 12.3808 12.0591 12.526 12.4748 12.9417C13.0808 13.5478 13.0808 14.5305 12.4747 15.1366L12.0814 15.5299C11.8342 15.7771 11.4757 15.881 11.1442 15.7703C10.0196 15.3946 7.7824 14.3847 5.19856 11.8009Z" fill="#1168AC"/>
<path d="M9.00293 0.000976562C8.45065 0.000976562 8.00293 0.448692 8.00293 1.00098V6.22803C8.00293 6.78032 8.45065 7.22803 9.00293 7.22803H9.77371V9.0772L12.5475 7.22803H16.0008C16.5531 7.22803 17.0008 6.78032 17.0008 6.22803V1.00098C17.0008 0.448692 16.5531 0.000976562 16.0008 0.000976562H9.00293ZM16.0047 5.23196C16.0047 5.78425 15.557 6.23196 15.0047 6.23196H12.2459L10.7698 7.21605V6.23196H9.999C9.44671 6.23196 8.999 5.78425 8.999 5.23196V1.99705C8.999 1.44476 9.44672 0.997047 9.999 0.997047H15.0047C15.557 0.997047 16.0047 1.44476 16.0047 1.99705V5.23196Z" fill="#1168AC"/>
<path d="M14.27 2.83228L13.5657 2.12793L12.1471 3.54657L11.4367 2.83627L10.7324 3.54059L12.1471 4.95521L14.27 2.83228Z" fill="#1168AC"/>
</g>
<defs>
<clipPath id="clip0_433_370">
<rect width="17" height="17" fill="white"/>
</clipPath>
</defs>
</svg>
