<svg width="18" height="12" viewBox="0 0 18 12" fill="none" xmlns="http://www.w3.org/2000/svg">
<path d="M7.06589 10.251L3.66498 7.00862L16.256 7.00862C16.6922 7.00862 17.05 6.67086 17.05 6.24933C17.05 5.82785 16.6922 5.49004 16.256 5.49004L3.66498 5.49005L7.06577 2.24763C7.37699 1.95091 7.37699 1.46887 7.06577 1.17215L7.06576 1.17214C6.91064 1.02431 6.70758 0.950599 6.5052 0.950599C6.3028 0.950599 6.09981 1.02432 5.94464 1.17213L5.94463 1.17215L1.18342 5.71159C0.872194 6.00831 0.872194 6.49035 1.18342 6.78707L5.94475 11.3265C6.25456 11.6219 6.75607 11.6219 7.06589 11.3265C7.37711 11.0298 7.37711 10.5478 7.06589 10.251Z" fill="white" stroke="white" stroke-width="0.1"/>
</svg>
