<svg width="26" height="26" viewBox="0 0 26 26" fill="none" xmlns="http://www.w3.org/2000/svg">
<g clip-path="url(#clip0_433_76)">
<path d="M19.364 17.0905L15.5001 13.2267C15.3746 13.1012 15.3746 12.8976 15.5001 12.7721L19.364 8.90829C19.9915 8.2807 19.9915 7.26303 19.364 6.63545C18.7364 6.00786 17.7187 6.00786 17.0911 6.63545L13.2273 10.4993C13.1018 10.6248 12.8982 10.6248 12.7727 10.4993L8.90888 6.63545C8.2813 6.00786 7.26362 6.00786 6.63604 6.63545C6.00845 7.26303 6.00845 8.2807 6.63604 8.90829L10.4999 12.7721C10.6254 12.8976 10.6254 13.1012 10.4999 13.2267L6.63604 17.0905C6.00845 17.7181 6.00845 18.7358 6.63604 19.3634C7.26362 19.991 8.2813 19.991 8.90888 19.3634L12.7727 15.4995C12.8982 15.374 13.1018 15.374 13.2273 15.4995L17.0911 19.3634C17.7187 19.991 18.7364 19.991 19.364 19.3634C19.9915 18.7358 19.9915 17.7181 19.364 17.0905Z" fill="#FCCA3A"/>
</g>
<defs>
<clipPath id="clip0_433_76">
<rect width="18" height="18" fill="white" transform="translate(13 0.271484) rotate(45)"/>
</clipPath>
</defs>
</svg>
