<svg width="100" height="100" viewBox="0 0 100 100" fill="none" xmlns="http://www.w3.org/2000/svg">
<path d="M80.8604 29.0527C81.9389 29.0527 82.8135 28.1783 82.8135 27.0996V5.85938C82.8135 2.62852 80.185 0 76.9541 0H5.86035C2.62949 0 0.000976562 2.62852 0.000976562 5.85938V94.1406C0.000976562 97.3715 2.62949 100 5.86035 100H76.9541C80.185 100 82.8135 97.3715 82.8135 94.1406V79.7516C82.8135 78.6729 81.9389 77.7984 80.8604 77.7984C79.7818 77.7984 78.9072 78.6729 78.9072 79.7516V94.1406C78.9072 95.2176 78.0311 96.0938 76.9541 96.0938H5.86035C4.7834 96.0938 3.90723 95.2176 3.90723 94.1406V5.85938C3.90723 4.78242 4.7834 3.90625 5.86035 3.90625H76.9541C78.0311 3.90625 78.9072 4.78242 78.9072 5.85938V27.0996C78.9072 28.1783 79.7818 29.0527 80.8604 29.0527Z" fill="#1168AC"/>
<path d="M41.4072 10.5469C31.4992 10.5469 23.4385 18.6076 23.4385 28.5156C23.4385 33.6557 25.6084 38.2978 29.0795 41.576C29.1445 41.6455 29.2137 41.7113 29.2893 41.7713C32.4867 44.6969 36.742 46.4842 41.407 46.4842C46.0721 46.4842 50.3273 44.6967 53.5248 41.7713C53.6004 41.7113 53.6695 41.6453 53.7346 41.576C57.206 38.2978 59.376 33.6557 59.376 28.5156C59.376 18.6076 51.3152 10.5469 41.4072 10.5469ZM41.4072 42.5781C38.218 42.5781 35.2746 41.5094 32.9129 39.7133C34.6295 36.6693 37.8328 34.7656 41.4072 34.7656C44.9816 34.7656 48.185 36.6693 49.9016 39.7133C47.5396 41.5094 44.5965 42.5781 41.4072 42.5781ZM38.2822 27.7344V26.4648C38.2822 24.7418 39.6842 23.3398 41.4072 23.3398C43.1303 23.3398 44.5322 24.7418 44.5322 26.4648V27.7344C44.5322 29.4574 43.1303 30.8594 41.4072 30.8594C39.6842 30.8594 38.2822 29.4574 38.2822 27.7344ZM52.7236 36.8521C51.2832 34.7158 49.2869 33.0543 46.9691 32.0285C47.8891 30.8396 48.4385 29.3504 48.4385 27.7344V26.4648C48.4385 22.5877 45.2844 19.4336 41.4072 19.4336C37.5301 19.4336 34.376 22.5877 34.376 26.4648V27.7344C34.376 29.3504 34.9254 30.8396 35.8453 32.0285C33.5275 33.0543 31.5312 34.7158 30.0908 36.8521C28.3664 34.5176 27.3447 31.6342 27.3447 28.5156C27.3447 20.7615 33.6531 14.4531 41.4072 14.4531C49.1613 14.4531 55.4697 20.7615 55.4697 28.5156C55.4697 31.6342 54.448 34.5176 52.7236 36.8521Z" fill="#1168AC"/>
<path d="M51.9541 85.5469H41.4072C40.3287 85.5469 39.4541 86.4213 39.4541 87.5C39.4541 88.5787 40.3287 89.4531 41.4072 89.4531H51.9541C53.0326 89.4531 53.9072 88.5787 53.9072 87.5C53.9072 86.4213 53.0326 85.5469 51.9541 85.5469Z" fill="#1168AC"/>
<path d="M51.9541 74.6094H24.2197C23.1412 74.6094 22.2666 75.4838 22.2666 76.5625C22.2666 77.6412 23.1412 78.5156 24.2197 78.5156H51.9541C53.0326 78.5156 53.9072 77.6412 53.9072 76.5625C53.9072 75.4838 53.0326 74.6094 51.9541 74.6094Z" fill="#1168AC"/>
<path d="M51.9541 63.6719H24.2197C23.1412 63.6719 22.2666 64.5463 22.2666 65.625C22.2666 66.7037 23.1412 67.5781 24.2197 67.5781H51.9541C53.0326 67.5781 53.9072 66.7037 53.9072 65.625C53.9072 64.5463 53.0326 63.6719 51.9541 63.6719Z" fill="#1168AC"/>
<path d="M17.2586 53.3066C16.8955 52.9434 16.3916 52.7344 15.876 52.7344C15.3621 52.7344 14.8582 52.9434 14.4951 53.3066C14.1318 53.6699 13.9229 54.1738 13.9229 54.6875C13.9229 55.2012 14.1316 55.7051 14.4951 56.0684C14.8604 56.4316 15.3621 56.6406 15.876 56.6406C16.3916 56.6406 16.8936 56.4316 17.2586 56.0684C17.6219 55.7051 17.8311 55.2012 17.8311 54.6875C17.8311 54.1738 17.6221 53.6699 17.2586 53.3066Z" fill="#1168AC"/>
<path d="M17.2586 64.2441C16.8936 63.8809 16.3916 63.6719 15.876 63.6719C15.3621 63.6719 14.8604 63.8809 14.4951 64.2441C14.1318 64.6074 13.9229 65.1113 13.9229 65.625C13.9229 66.1387 14.1316 66.6426 14.4951 67.0059C14.8604 67.3691 15.3621 67.5781 15.876 67.5781C16.3916 67.5781 16.8936 67.3691 17.2586 67.0059C17.6219 66.6426 17.8311 66.1387 17.8311 65.625C17.8311 65.1113 17.6221 64.6074 17.2586 64.2441Z" fill="#1168AC"/>
<path d="M17.2586 75.1816C16.8936 74.8184 16.3916 74.6094 15.876 74.6094C15.3621 74.6094 14.8604 74.8184 14.4951 75.1816C14.1318 75.5449 13.9229 76.0488 13.9229 76.5625C13.9229 77.0762 14.1316 77.5801 14.4951 77.9434C14.8582 78.3066 15.3621 78.5156 15.876 78.5156C16.3916 78.5156 16.8955 78.3066 17.2586 77.9434C17.6219 77.5801 17.8311 77.0762 17.8311 76.5625C17.8311 76.0488 17.6221 75.5449 17.2586 75.1816Z" fill="#1168AC"/>
<path d="M51.9541 52.7344H24.2197C23.1412 52.7344 22.2666 53.6088 22.2666 54.6875C22.2666 55.7662 23.1412 56.6406 24.2197 56.6406H51.9541C53.0326 56.6406 53.9072 55.7662 53.9072 54.6875C53.9072 53.6088 53.0326 52.7344 51.9541 52.7344Z" fill="#1168AC"/>
<path d="M95.898 25.4531C94.0005 24.3576 91.79 24.0666 89.6732 24.6336C87.5568 25.2007 85.7876 26.5582 84.6923 28.4556L60.1138 71.0265C59.9792 71.2599 59.8941 71.5187 59.8642 71.7865L58.1341 87.2834C58.0482 88.0545 58.4267 88.8035 59.0986 89.1916C59.4019 89.3666 59.7388 89.4533 60.075 89.4533C60.4836 89.4533 60.8906 89.3254 61.2334 89.0728L73.7888 79.8259C74.0058 79.6662 74.1875 79.4632 74.322 79.2298L98.9003 36.6589C101.162 32.7418 99.8152 27.7148 95.898 25.4531ZM62.5115 83.28L63.415 75.1879L69.0677 78.4515L62.5115 83.28ZM71.9158 75.5851L64.4734 71.2882L84.197 37.1261L91.6394 41.423L71.9158 75.5851ZM95.5175 34.7056L93.5923 38.0402L86.15 33.7433L88.0751 30.4088C88.649 29.4148 89.5755 28.7039 90.6841 28.4068C91.7931 28.1095 92.9509 28.2623 93.9447 28.8361C94.9386 29.4099 95.6496 30.3365 95.9466 31.4451C96.2437 32.5537 96.0914 33.7117 95.5175 34.7056Z" fill="#1168AC"/>
</svg>
