<svg width="66" height="67" viewBox="0 0 66 67" fill="none" xmlns="http://www.w3.org/2000/svg">
<path d="M32.7121 0.9375C14.722 0.9375 0.137695 15.5215 0.137695 33.5119C0.137695 51.5023 14.722 66.0863 32.7121 66.0863C50.7022 66.0863 65.2865 51.5023 65.2865 33.5119C65.2865 15.5215 50.7022 0.9375 32.7121 0.9375ZM43.9706 35.2386L27.6834 45.4181C27.3539 45.6239 26.9791 45.7273 26.6044 45.7273C26.2649 45.7273 25.9249 45.6428 25.6172 45.4718C24.9701 45.113 24.5685 44.432 24.5685 43.6914V23.3324C24.5685 22.5918 24.9701 21.9108 25.6172 21.552C26.2644 21.1911 27.0557 21.213 27.6834 21.6057L43.9706 31.7852C44.5656 32.158 44.9275 32.8102 44.9275 33.5119C44.9275 34.2137 44.5656 34.8659 43.9706 35.2386Z" fill="#91D9FC"/>
</svg>
